#!OML:ASF H:\ManfredETheater\Project 1\Capture day 1\Session 1\subject.ASF
:FULLY-SPECIFIED
:DEGREES
64
root 0.0390822 17.3833 -24.5257 16.1352 1.94183 -6.77776
lowerback 13.7423 2.44918 6.31795
upperback 0.59908 4.49498 3.68008
thorax -6.89508 2.0413 -0.511804
lowerneck -20.5582 -4.24489 -4.05764
upperneck 11.6157 -4.47978 -0.597149
head 6.96767 -2.39702 -0.0755456
rclavicle 2.22639e-014 1.90833e-014
rhumerus -44.9051 17.563 -93.9105
rradius 111.779
rwrist -4.38056
rhand -26.6438 13.4108
rfingers 7.12502
rthumb -0.0760111 -16.5689
lclavicle 2.22639e-014 1.90833e-014
lhumerus -77.443 -11.777 99.9243
lradius 107.297
lwrist 15.1766
lhand -18.2049 -19.6425
lfingers 7.12502
lthumb 8.07258 10.1833
rfemur -0.496463 1.44119 28.2785
rtibia 41.4697
rfoot 3.85153 -2.45618
rtoes -34.8522
lfemur -61.847 0.42268 -17.5764
ltibia 50.167
lfoot -1.04422 -14.4217
ltoes -11.5288
65
root 0.00470475 17.3994 -24.0369 15.5964 2.1502 -6.91439
lowerback 13.7108 2.39374 6.18761
upperback 0.705374 4.3909 3.67751
thorax -6.77743 2.00038 -0.419392
lowerneck -20.3246 -4.2605 -4.05838
upperneck 11.8301 -4.55751 -0.322558
head 7.00787 -2.41033 0.00689418
rclavicle 4.29375e-014 3.4191e-014
rhumerus -46.2021 16.9447 -94.5097
rradius 109.929
rwrist -4.50366
rhand -26.6162 13.1239
rfingers 7.12502
rthumb -0.0493665 -16.8558
lclavicle 4.29375e-014 3.4191e-014
lhumerus -75.9572 -11.5151 100.496
lradius 107.744
lwrist 15.0522
lhand -18.1934 -19.6821
lfingers 7.12502
lthumb 8.08368 10.1432
rfemur -1.57938 1.13124 28.4055
rtibia 46.0696
rfoot 3.90095 -2.5906
rtoes -34.3259
lfemur -60.4585 0.55371 -17.5997
ltibia 49.2652
lfoot -0.223034 -14.4449
ltoes -11.0651
66
root -0.0307029 17.4049 -23.5509 14.9946 2.3758 -7.01373
lowerback 13.7252 2.27175 6.03511
upperback 0.819609 4.19706 3.64486
thorax -6.67974 1.91513 -0.332192
lowerneck -20.0395 -4.2067 -3.95432
upperneck 11.9903 -4.56877 -0.0797689
head 7.01744 -2.38952 0.0721286
rclavicle -5.40694e-014 -1.74931e-014
rhumerus -47.4367 16.0497 -95.0363
rradius 107.745
rwrist -4.19827
rhand -26.5734 12.8138
rfingers 7.12502
rthumb -0.00802915 -17.166
lclavicle -5.40694e-014 -1.74931e-014
lhumerus -74.2182 -11.3921 101.101
lradius 108.313
lwrist 14.909
lhand -18.2538 -19.6629
lfingers 7.12502
lthumb 8.02542 10.1648
rfemur -2.9544 0.545797 28.4629
rtibia 51.2317
rfoot 3.34196 -3.22739
rtoes -34.1182
lfemur -58.9442 0.752805 -17.7004
ltibia 49.0416
lfoot 0.0673938 -14.6188
ltoes -9.6241
67
root -0.0664461 17.4008 -23.0699 14.3611 2.57943 -7.02742
lowerback 13.7868 2.10039 5.80241
upperback 0.929491 3.92699 3.56535
thorax -6.6173 1.79303 -0.238107
lowerneck -19.713 -4.08957 -3.74323
upperneck 12.1079 -4.51842 0.121935
head 7.00135 -2.33785 0.115552
rclavicle -2.78299e-015 -2.14687e-014
rhumerus -48.5945 14.9156 -95.4595
rradius 105.27
rwrist -3.44706
rhand -26.5474 12.4734
rfingers 7.12502
rthumb 0.0170169 -17.5064
lclavicle -2.78299e-015 -2.14687e-014
lhumerus -72.2431 -11.4114 101.722
lradius 109.003
lwrist 14.7476
lhand -18.343 -19.5884
lfingers 7.12502
lthumb 7.93932 10.2425
rfemur -4.61585 -0.249354 28.3702
rtibia 56.8063
rfoot 2.47747 -4.29297
rtoes -33.8714
lfemur -57.3125 1.02018 -17.9214
ltibia 49.3436
lfoot -0.312377 -14.8798
ltoes -7.60377
68
root -0.102028 17.3885 -22.5946 13.6924 2.7967 -6.87676
lowerback 13.9176 1.87059 5.43066
upperback 1.03323 3.56022 3.42563
thorax -6.6066 1.62523 -0.114542
lowerneck -19.3679 -3.91838 -3.45303
upperneck 12.2059 -4.41042 0.293352
head 6.97201 -2.25756 0.143554
rclavicle 1.11319e-014 -2.22639e-014
rhumerus -49.6806 13.5972 -95.7497
rradius 102.563
rwrist -2.32459
rhand -26.6069 12.1526
rfingers 7.12502
rthumb -0.0404231 -17.8271
lclavicle 1.11319e-014 -2.22639e-014
lhumerus -70.0387 -11.5756 102.343
lradius 109.801
lwrist 14.5957
lhand -18.4372 -19.4581
lfingers 7.12502
lthumb 7.84842 10.3762
rfemur -6.51965 -1.25677 28.0415
rtibia 62.6525
rfoot 1.39359 -5.54155
rtoes -33.567
lfemur -55.5171 1.28629 -18.3259
ltibia 49.9684
lfoot -1.34288 -15.1713
ltoes -4.97562
69
root -0.136973 17.3708 -22.1255 12.9904 3.05218 -6.4621
lowerback 14.1348 1.58249 4.83425
upperback 1.12792 3.08214 3.20631
thorax -6.66138 1.40671 0.0702812
lowerneck -19.0159 -3.70811 -3.11492
upperneck 12.3018 -4.25728 0.448173
head 6.93851 -2.15485 0.163349
rclavicle 1.51076e-014 1.19271e-014
rhumerus -50.7159 12.1465 -95.8701
rradius 99.7002
rwrist -0.993365
rhand -26.804 11.9176
rfingers 7.12502
rthumb -0.230789 -18.062
lclavicle 1.51076e-014 1.19271e-014
lhumerus -67.6136 -11.8834 102.947
lradius 110.686
lwrist 14.468
lhand -18.5125 -19.2905
lfingers 7.12502
lthumb 7.77573 10.5465
rfemur -8.6287 -2.48283 27.3581
rtibia 68.6476
rfoot 0.287285 -6.77875
rtoes -32.7448
lfemur -53.5108 1.46131 -18.9885
ltibia 50.714
lfoot -2.94932 -15.3255
ltoes -1.99955
70
root -0.17086 17.3501 -21.6634 12.3101 3.31312 -5.69979
lowerback 14.4184 1.26295 3.91938
upperback 1.19688 2.5076 2.88617
thorax -6.78521 1.14766 0.348004
lowerneck -18.6776 -3.47532 -2.76977
upperneck 12.4168 -4.07352 0.610532
head 6.91316 -2.0363 0.186838
rclavicle -5.56597e-015 -8.74653e-015
rhumerus -51.7458 10.6199 -95.7983
rradius 96.8307
rwrist 0.29069
rhand -27.1035 11.6863
rfingers 7.12502
rthumb -0.520069 -18.2928
lclavicle -5.56597e-015 -8.74653e-015
lhumerus -64.9878 -12.3413 103.512
lradius 111.628
lwrist 14.3702
lhand -18.6072 -19.1126
lfingers 7.12502
lthumb 7.68431 10.7278
rfemur -10.9724 -3.88463 26.1959
rtibia 74.6869
rfoot -0.970683 -7.78934
rtoes -31.7155
lfemur -51.3213 1.50566 -19.9804
ltibia 51.4094
lfoot -5.01735 -15.1877
ltoes 0.913681
